<?xml version="1.0" standalone="no"?>
<!DOCTYPE svg PUBLIC "-//W3C//DTD SVG 20010904//EN"
 "http://www.w3.org/TR/2001/REC-SVG-20010904/DTD/svg10.dtd">
<svg version="1.0" xmlns="http://www.w3.org/2000/svg"
 width="128.000000pt" height="128.000000pt" viewBox="0 0 128.000000 128.000000"
 preserveAspectRatio="xMidYMid meet">

<g transform="translate(0.000000,128.000000) scale(0.100000,-0.100000)"
fill="#000000" stroke="none">
<path d="M242 654 c3 -397 4 -419 21 -422 10 -2 29 -1 43 2 l24 6 0 178 c0
110 4 172 9 163 8 -12 20 -10 73 12 35 15 101 50 147 77 46 28 88 50 93 50 6
0 23 -9 39 -21 29 -21 177 -92 215 -103 17 -5 24 0 34 24 7 18 22 33 37 36 14
4 23 12 21 22 -2 10 -30 20 -88 32 -84 17 -190 56 -190 69 0 4 14 20 31 37 17
16 48 52 70 81 22 28 50 53 61 55 43 6 26 41 -40 85 -21 15 -25 14 -46 -6 -23
-22 -30 -23 -210 -20 -102 2 -186 0 -186 -4 0 -50 -1 -49 41 -46 38 3 42 1 55
-29 7 -18 33 -60 56 -94 l43 -60 -40 -34 c-40 -33 -174 -115 -207 -127 -17 -6
-18 4 -18 121 0 133 9 146 31 44 6 -31 17 -56 26 -59 23 -9 53 33 53 72 0 26
-10 42 -55 84 -46 44 -55 58 -55 87 0 24 7 41 21 53 18 15 19 18 6 29 -8 7
-38 15 -66 19 l-51 6 2 -419z m518 307 c0 -4 -27 -37 -60 -72 l-60 -64 -41 45
c-22 25 -47 57 -55 72 l-15 28 116 0 c63 0 115 -4 115 -9z"/>
<path d="M190 876 c0 -35 -20 -87 -48 -124 -20 -28 -23 -39 -16 -64 13 -44 37
-57 63 -34 29 26 41 77 41 169 0 70 -2 77 -20 77 -14 0 -20 -7 -20 -24z"/>
<path d="M608 609 l4 -70 -108 2 c-76 1 -109 -2 -108 -10 1 -6 2 -18 3 -26 1
-12 20 -15 106 -15 l105 0 0 -81 0 -82 -135 5 c-140 5 -144 4 -129 -36 5 -14
28 -16 149 -16 l144 0 24 -52 c63 -137 215 -206 358 -165 82 24 182 117 148
138 -8 5 -20 2 -30 -7 -21 -19 -38 -18 -73 5 -36 24 -39 41 -19 88 19 46 10
93 -25 134 l-26 32 27 -5 c17 -3 26 -1 24 5 -5 15 -68 47 -94 47 -13 0 -23 6
-23 13 0 7 -18 31 -40 52 l-40 39 -33 -32 c-28 -27 -41 -32 -80 -32 l-47 0 0
38 c0 26 7 43 22 56 21 18 21 19 3 32 -10 8 -39 14 -65 14 l-46 0 4 -71z m242
-132 c0 -7 20 -26 45 -41 44 -28 50 -46 16 -46 -24 0 -101 -38 -101 -50 0 -23
-55 -9 -87 22 -28 27 -33 39 -33 80 l0 48 80 0 c59 0 80 -3 80 -13z m-30 -202
c7 -9 8 -15 2 -15 -5 0 -12 7 -16 15 -3 8 -4 15 -2 15 2 0 9 -7 16 -15z"/>
</g>
</svg>
